HIERARCHY
ROOT Hips
{
 OFFSET 0.000000 0.000000 0.000000
 CHANNELS 6 Xposition Yposition Zposition Yrotation Xrotation Zrotation
 JOINT Chest
 {
  OFFSET 0.000000 9.812683 -0.003552
  CHANNELS 3 Yrotation Xrotation Zrotation
  JOINT Chest2
  {
   OFFSET 0.000000 9.777810 0.007248
   CHANNELS 3 Yrotation Xrotation Zrotation
   JOINT Chest3
   {
    OFFSET 0.000000 9.736392 0.000000
    CHANNELS 3 Yrotation Xrotation Zrotation
    JOINT Chest4
    {
     OFFSET 0.000000 9.726454 0.000000
     CHANNELS 3 Yrotation Xrotation Zrotation
     JOINT Neck
     {
      OFFSET 0.000000 14.679095 0.000000
      CHANNELS 3 Yrotation Xrotation Zrotation
      JOINT Head
      {
       OFFSET 0.000000 9.104124 0.015333
       CHANNELS 3 Yrotation Xrotation Zrotation
       End Site
       {
        OFFSET 0.000000 17.313862 0.008094
       }
      }
     }
     JOINT RightCollar
     {
      OFFSET -2.991841 9.728033 0.000000
      CHANNELS 3 Yrotation Xrotation Zrotation
      JOINT RightShoulder
      {
       OFFSET -14.105608 0.000000 0.000000
       CHANNELS 3 Yrotation Xrotation Zrotation
       JOINT RightElbow
       {
        OFFSET -30.920614 0.000000 0.000000
        CHANNELS 3 Yrotation Xrotation Zrotation
        JOINT RightWrist
        {
         OFFSET -25.011638 0.000000 0.000000
         CHANNELS 3 Yrotation Xrotation Zrotation
         End Site
         {
          OFFSET -18.498852 0.000000 0.000000
         }
        }
       }
      }
     }
     JOINT LeftCollar
     {
      OFFSET 2.991841 9.728033 0.000000
      CHANNELS 3 Yrotation Xrotation Zrotation
      JOINT LeftShoulder
      {
       OFFSET 14.105608 0.000000 0.000000
       CHANNELS 3 Yrotation Xrotation Zrotation
       JOINT LeftElbow
       {
        OFFSET 30.920614 0.000000 0.000000
        CHANNELS 3 Yrotation Xrotation Zrotation
        JOINT LeftWrist
        {
         OFFSET 25.011638 0.000000 0.000000
         CHANNELS 3 Yrotation Xrotation Zrotation
         End Site
         {
          OFFSET 18.498852 0.000000 0.000000
         }
        }
       }
      }
     }
    }
   }
  }
 }
 JOINT RightHip
 {
  OFFSET -8.005612 0.017580 0.001776
  CHANNELS 3 Yrotation Xrotation Zrotation
  JOINT RightKnee
  {
   OFFSET 0.000000 -41.413990 -0.001697
   CHANNELS 3 Yrotation Xrotation Zrotation
   JOINT RightAnkle
   {
    OFFSET 0.000000 -40.303361 -0.002870
    CHANNELS 3 Yrotation Xrotation Zrotation
    JOINT RightToe
    {
     OFFSET 0.000000 -7.855341 17.873357
     CHANNELS 3 Yrotation Xrotation Zrotation
     End Site
     {
      OFFSET 0.000000 -1.536332 6.874071
     }
    }
   }
  }
 }
 JOINT LeftHip
 {
  OFFSET 8.005612 0.017580 0.001776
  CHANNELS 3 Yrotation Xrotation Zrotation
  JOINT LeftKnee
  {
   OFFSET 0.000000 -41.413990 -0.001697
   CHANNELS 3 Yrotation Xrotation Zrotation
   JOINT LeftAnkle
   {
    OFFSET 0.000000 -40.303361 -0.002870
    CHANNELS 3 Yrotation Xrotation Zrotation
    JOINT LeftToe
    {
     OFFSET 0.000000 -7.855341 17.873357
     CHANNELS 3 Yrotation Xrotation Zrotation
     End Site
     {
      OFFSET 0.000000 -1.536332 6.874071
     }
    }
   }
  }
 }
}
MOTION
Frames: 16
Frame Time: 0.008333
-378.182878 90.789861 -359.269548 -116.703885 -6.434244 1.721996 -0.930372 4.418397 0.079590 -0.543836 2.567177 0.054307 -0.679585 3.209043 0.064087 -0.543836 2.567178 0.054307 9.623444 15.390186 -2.708983 18.902884 -6.184734 -8.476870 2.878220 0.076639 -6.352203 -7.185396 11.933825 87.406148 6.752567 10.735813 0.198512 0.524655 -1.677421 3.322551 7.520657 -5.212312 3.214025 -10.963776 -14.311977 -75.541037 -13.058359 18.621607 -13.635355 2.883340 -0.980943 -4.300167 -3.346016 -11.980869 -9.532131 -2.201710 21.277814 -2.301115 2.978070 -0.080285 9.657570 -0.071159 1.144823 0.623946 -3.586718 5.728339 -3.558870 -2.336370 10.136943 -0.948469 -0.904467 -8.686057 1.537179 -0.036441 -0.200118 -0.172257
-378.211619 90.787951 -359.549727 -116.697741 -6.385070 1.730647 -0.910659 4.400981 0.116539 -0.531322 2.556590 0.072545 -0.663811 3.195834 0.086993 -0.531322 2.556591 0.072545 9.650908 15.352158 -2.724587 18.964806 -6.247344 -8.521613 2.970547 0.022133 -6.312847 -7.167490 11.861878 87.347827 6.762503 10.566836 0.209339 0.595003 -1.718669 3.267869 7.510273 -5.252281 3.255150 -11.097433 -14.177652 -75.532585 -13.274974 18.654225 -13.839613 2.912821 -0.935126 -4.412655 -3.578810 -11.614249 -9.289393 -2.348250 20.842754 -2.399913 3.042528 -0.418408 9.240315 -0.056237 1.177866 0.681425 -3.695950 5.789235 -3.444790 -2.350230 10.131894 -0.916045 -0.843764 -8.781364 1.424580 -0.036744 -0.209069 -0.185050
-378.231789 90.784554 -359.829181 -116.697656 -6.299065 1.744863 -0.885617 4.365916 0.145594 -0.517571 2.537728 0.091439 -0.646489 3.172281 0.110740 -0.517571 2.537729 0.091440 9.676620 15.314262 -2.737450 19.022546 -6.310471 -8.560717 3.066452 -0.019100 -6.284458 -7.150274 11.783937 87.303412 6.768732 10.409290 0.214446 0.654882 -1.758221 3.222737 7.504857 -5.281818 3.283037 -11.214436 -14.037417 -75.533747 -13.455499 18.648348 -14.004576 2.955938 -0.888936 -4.531403 -3.770689 -11.301318 -9.072727 -2.448399 20.437012 -2.461234 3.087795 -0.759918 8.873334 -0.050675 1.192267 0.691470 -3.800110 5.804342 -3.332722 -2.353797 10.136176 -0.879211 -0.792643 -8.876195 1.311791 -0.035133 -0.218872 -0.197946
-378.244385 90.779403 -360.108880 -116.696321 -6.182201 1.766095 -0.856117 4.319412 0.166830 -0.501922 2.512426 0.109649 -0.626800 3.140675 0.133650 -0.501921 2.512427 0.109649 9.698024 15.275260 -2.748527 19.071869 -6.376633 -8.595296 3.158463 -0.057221 -6.262572 -7.133344 11.707588 87.268429 6.778232 10.265537 0.215741 0.702007 -1.789576 3.187824 7.497167 -5.304032 3.302473 -11.300181 -13.898836 -75.551616 -13.597312 18.621986 -14.132109 3.004832 -0.849813 -4.651922 -3.935608 -11.034095 -8.891579 -2.485488 20.053966 -2.466874 3.112987 -1.100358 8.552262 -0.055357 1.189729 0.660100 -3.907259 5.779642 -3.225265 -2.347214 10.149453 -0.837642 -0.749704 -8.970558 1.199518 -0.031629 -0.229153 -0.211668
-378.251869 90.772834 -360.392354 -116.687157 -6.054595 1.787319 -0.825202 4.272225 0.186672 -0.484392 2.484472 0.126898 -0.604771 3.105751 0.155373 -0.484391 2.484473 0.126899 9.714520 15.236139 -2.758085 19.111605 -6.444071 -8.625455 3.245100 -0.102615 -6.243008 -7.114573 11.641106 87.235123 6.796157 10.133274 0.216548 0.733714 -1.809463 3.164093 7.480276 -5.317050 3.314923 -11.340915 -13.770383 -75.589986 -13.697291 18.587249 -14.221004 3.053603 -0.821898 -4.766163 -4.080218 -10.789676 -8.735477 -2.478777 19.690187 -2.425765 3.131271 -1.429098 8.260311 -0.065977 1.167776 0.605809 -4.026375 5.740009 -3.116767 -2.335708 10.166820 -0.791101 -0.707885 -9.066220 1.086016 -0.026983 -0.237941 -0.226172
-378.255632 90.765381 -360.683279 -116.671396 -5.931103 1.798459 -0.792863 4.229413 0.215540 -0.465863 2.457582 0.143355 -0.581500 3.072153 0.176108 -0.465862 2.457583 0.143355 9.727312 15.197757 -2.766832 19.144107 -6.510892 -8.652761 3.330681 -0.163089 -6.221941 -7.094611 11.589225 87.196595 6.822821 10.016240 0.218553 0.750606 -1.819727 3.151995 7.452509 -5.319309 3.321817 -11.326237 -13.655616 -75.655371 -13.753950 18.547963 -14.266873 3.100169 -0.807071 -4.866536 -4.201339 -10.553174 -8.579692 -2.470903 19.343471 -2.368330 3.161252 -1.725728 7.991525 -0.075947 1.121968 0.539347 -4.154991 5.703280 -2.997276 -2.325852 10.188907 -0.738522 -0.661390 -9.167301 0.969950 -0.022432 -0.243997 -0.242273
-378.256770 90.757686 -360.983655 -116.650245 -5.821013 1.795747 -0.759661 4.194051 0.256279 -0.447479 2.434820 0.159530 -0.558414 3.043713 0.196483 -0.447479 2.434821 0.159531 9.737817 15.158958 -2.774705 19.172149 -6.579003 -8.677773 3.419026 -0.244159 -6.198346 -7.075184 11.551116 87.151904 6.855595 9.920819 0.223794 0.758536 -1.824946 3.144201 7.417774 -5.311549 3.328531 -11.253463 -13.556704 -75.756968 -13.767559 18.506049 -14.271177 3.140436 -0.805902 -4.940728 -4.301490 -10.322095 -8.405256 -2.485111 19.024679 -2.318698 3.201488 -1.983030 7.746238 -0.079465 1.053906 0.463997 -4.286676 5.679771 -2.863247 -2.324136 10.217917 -0.678192 -0.608549 -9.275500 0.850365 -0.019025 -0.248070 -0.260382
-378.257030 90.750412 -361.294132 -116.621068 -5.733660 1.781245 -0.728307 4.170938 0.304308 -0.430100 2.418905 0.176061 -0.536581 3.023833 0.217285 -0.430099 2.418906 0.176062 9.747169 15.117666 -2.781096 19.197928 -6.652153 -8.700119 3.509560 -0.345167 -6.169177 -7.052771 11.519389 87.104383 6.889871 9.846438 0.227990 0.763244 -1.827084 3.135401 7.381230 -5.297734 3.336709 -11.134157 -13.473862 -75.893430 -13.739969 18.460127 -14.237535 3.170311 -0.819504 -4.978741 -4.389700 -10.098591 -8.206395 -2.514168 18.756671 -2.284023 3.236424 -2.208675 7.514607 -0.075033 0.967183 0.389306 -4.416596 5.681960 -2.717495 -2.337225 10.249589 -0.608791 -0.550830 -9.388168 0.728142 -0.017108 -0.251300 -0.281282
-378.257347 90.743879 -361.614444 -116.583847 -5.671100 1.757379 -0.699581 4.161256 0.354434 -0.413873 2.410873 0.193725 -0.516180 3.013804 0.239485 -0.413873 2.410874 0.193725 9.756715 15.072649 -2.785832 19.224074 -6.732417 -8.720165 3.600831 -0.462138 -6.130563 -7.019158 11.483197 87.052022 6.918951 9.785134 0.226914 0.771605 -1.824687 3.128207 7.348401 -5.286148 3.348381 -10.990527 -13.401835 -76.057225 -13.674408 18.404327 -14.168187 3.191259 -0.849096 -4.981297 -4.469663 -9.888688 -7.986376 -2.549783 18.554984 -2.260065 3.261951 -2.410257 7.282536 -0.066731 0.865029 0.324621 -4.536015 5.715839 -2.560220 -2.371111 10.277110 -0.533773 -0.490612 -9.502337 0.606144 -0.016639 -0.253727 -0.304954
-378.257856 90.737887 -361.943239 -116.541544 -5.627297 1.728584 -0.672884 4.161310 0.402203 -0.398420 2.408787 0.213045 -0.496733 3.011210 0.263744 -0.398420 2.408788 0.213045 9.767279 15.024974 -2.788949 19.251971 -6.817696 -8.738068 3.691868 -0.586896 -6.083187 -6.968343 11.438530 86.991222 6.939337 9.727655 0.225319 0.786221 -1.816312 3.120673 7.324083 -5.279790 3.361165 -10.847545 -13.332411 -76.237383 -13.573175 18.330884 -14.064766 3.205530 -0.892868 -4.952409 -4.538780 -9.700200 -7.753955 -2.591796 18.422215 -2.241101 3.282359 -2.595605 7.042667 -0.060608 0.754148 0.272508 -4.635016 5.778028 -2.392849 -2.423981 10.294741 -0.456450 -0.434211 -9.615464 0.484469 -0.017495 -0.255302 -0.328742
-378.258382 90.731684 -362.279275 -116.497244 -5.593907 1.697385 -0.647579 4.166121 0.445975 -0.383453 2.409402 0.234885 -0.477877 3.011992 0.291147 -0.383453 2.409403 0.234885 9.778302 14.977100 -2.791727 19.280664 -6.903322 -8.755568 3.784136 -0.708604 -6.033112 -6.905241 11.384019 86.922012 6.953450 9.670599 0.227517 0.802405 -1.803626 3.110212 7.309631 -5.274802 3.367489 -10.720935 -13.258678 -76.426308 -13.439698 18.234351 -13.926392 3.213869 -0.941131 -4.898467 -4.594509 -9.537554 -7.514103 -2.637445 18.350661 -2.224805 3.298373 -2.771777 6.795803 -0.059761 0.642709 0.231010 -4.706650 5.862751 -2.215696 -2.486441 10.296761 -0.377538 -0.391068 -9.725791 0.360935 -0.019479 -0.254882 -0.349654
-378.258277 90.723976 -362.621691 -116.452234 -5.560651 1.663789 -0.624064 4.170996 0.486175 -0.369131 2.409341 0.260229 -0.459803 3.011933 0.322930 -0.369131 2.409342 0.260230 9.790066 14.932027 -2.795713 19.310772 -6.983442 -8.775088 3.881577 -0.816090 -5.987866 -6.838208 11.313342 86.847914 6.962134 9.614833 0.230493 0.815897 -1.793764 3.100636 7.302995 -5.266682 3.363650 -10.608759 -13.176526 -76.620919 -13.285228 18.117708 -13.756456 3.219156 -0.980678 -4.830221 -4.631197 -9.405703 -7.268210 -2.679721 18.332489 -2.210067 3.302156 -2.946634 6.548438 -0.063730 0.537462 0.195958 -4.745897 5.961535 -2.025916 -2.554295 10.278712 -0.299502 -0.365782 -9.833611 0.236032 -0.021739 -0.249518 -0.367191
-378.256612 90.713151 -362.969584 -116.406602 -5.516059 1.629071 -0.601942 4.169694 0.524863 -0.355866 2.405143 0.288451 -0.443036 3.006704 0.358306 -0.355866 2.405144 0.288451 9.803720 14.893100 -2.800409 19.343744 -7.051814 -8.795496 3.983537 -0.896023 -5.951748 -6.765278 11.220579 86.775528 6.966072 9.556899 0.228211 0.825142 -1.789617 3.095901 7.302864 -5.250365 3.347374 -10.503337 -13.081939 -76.817896 -13.121947 17.991661 -13.562063 3.222466 -1.006452 -4.753558 -4.641048 -9.310548 -7.017282 -2.706918 18.360390 -2.195971 3.276286 -3.128428 6.307423 -0.067329 0.443972 0.164733 -4.749792 6.060964 -1.822371 -2.627490 10.242563 -0.225196 -0.358476 -9.941933 0.110983 -0.023257 -0.236665 -0.381595
-378.252671 90.697701 -363.322266 -116.358881 -5.451607 1.595924 -0.579999 4.155883 0.564946 -0.344341 2.394622 0.318063 -0.428440 2.993571 0.395414 -0.344341 2.394623 0.318064 9.818803 14.862052 -2.804582 19.378010 -7.105565 -8.814029 4.086522 -0.943786 -5.932179 -6.680771 11.106663 86.712092 6.968025 9.492867 0.220630 0.826966 -1.785897 3.096590 7.310098 -5.221536 3.315153 -10.400323 -12.972370 -77.016695 -12.955716 17.865724 -13.348009 3.222640 -1.018244 -4.669637 -4.621565 -9.250604 -6.763282 -2.711072 18.417794 -2.182102 3.209480 -3.322862 6.076574 -0.063805 0.368293 0.137175 -4.720978 6.148445 -1.607403 -2.701454 10.193767 -0.154650 -0.370146 -10.054239 -0.016172 -0.023906 -0.215164 -0.391674
-378.247790 90.676844 -363.678217 -116.302761 -5.369384 1.577670 -0.561077 4.132703 0.600325 -0.335143 2.377305 0.346991 -0.416766 2.971943 0.431657 -0.335143 2.377306 0.346992 9.833045 14.838212 -2.808254 19.409452 -7.146300 -8.830057 4.185505 -0.964994 -5.933625 -6.584781 10.975966 86.658748 6.972060 9.422924 0.211761 0.818155 -1.780405 3.103169 7.321520 -5.179400 3.265269 -10.297566 -12.849541 -77.215637 -12.790588 17.743241 -13.117419 3.222458 -1.016488 -4.585684 -4.581019 -9.215505 -6.523471 -2.694099 18.486085 -2.169049 3.103441 -3.538116 5.854108 -0.045966 0.320324 0.118377 -4.675438 6.220072 -1.399119 -2.771888 10.143704 -0.086164 -0.398092 -10.199047 -0.147213 -0.023093 -0.164178 -0.396088
-378.240546 90.650472 -364.037772 -116.234563 -5.263636 1.570971 -0.543849 4.092783 0.641197 -0.328540 2.354210 0.372292 -0.408367 2.943089 0.463351 -0.328539 2.354211 0.372293 9.844897 14.819384 -2.811146 19.435414 -7.178369 -8.842920 4.274884 -0.965564 -5.948312 -6.482491 10.832622 86.608101 6.986126 9.351046 0.200853 0.799940 -1.775798 3.120129 7.332086 -5.125000 3.202602 -10.197270 -12.717232 -77.413606 -12.626146 17.622238 -12.874765 3.219361 -1.005430 -4.508717 -4.539512 -9.197767 -6.291731 -2.665906 18.548369 -2.158386 2.997206 -3.778179 5.635154 -0.032489 0.298282 0.105080 -4.633485 6.271393 -1.194620 -2.839644 10.076534 -0.019415 -0.427042 -10.309205 -0.285597 -0.022013 -0.137004 -0.396599
